<svg width="16" height="16" viewBox="0 0 16 16" fill="none" xmlns="http://www.w3.org/2000/svg">
<g id="Icons / arrow-circle-o-left">
<path id="arrow-circle-o-left" fill-rule="evenodd" clip-rule="evenodd" d="M4.49491 8.68093V6.89997C4.49491 6.81958 4.52428 6.75001 4.58303 6.69126C4.64178 6.63252 4.71134 6.60314 4.79173 6.60314H8.05682V4.82219C8.05682 4.73561 8.08465 4.6645 8.1403 4.60884C8.19596 4.55319 8.26707 4.52536 8.35365 4.52536C8.42785 4.52536 8.50206 4.55628 8.57627 4.61812L11.5353 7.5771C11.5909 7.63275 11.6187 7.70387 11.6187 7.79044C11.6187 7.87702 11.5909 7.94813 11.5353 8.00379L8.56699 10.972C8.51134 11.0277 8.44022 11.0555 8.35365 11.0555C8.27326 11.0555 8.20369 11.0262 8.14494 10.9674C8.0862 10.9087 8.05682 10.8391 8.05682 10.7587V8.97774H4.79174C4.71134 8.97774 4.64178 8.94837 4.58303 8.88962C4.52428 8.83088 4.49491 8.76131 4.49491 8.68092L4.49491 8.68093ZM3.68795 5.2582C3.23653 6.03118 3.01082 6.87528 3.01082 7.7905C3.01082 8.70571 3.23653 9.54981 3.68795 10.3228C4.13937 11.0958 4.75158 11.708 5.52456 12.1594C6.29754 12.6108 7.14164 12.8365 8.05685 12.8365C8.97207 12.8365 9.81617 12.6108 10.5891 12.1594C11.3621 11.708 11.9743 11.0958 12.4258 10.3228C12.8772 9.54981 13.1029 8.70571 13.1029 7.7905C13.1029 6.87528 12.8772 6.03118 12.4258 5.2582C11.9743 4.48522 11.3621 3.87302 10.5891 3.42159C9.81617 2.97017 8.97207 2.74446 8.05685 2.74446C7.14164 2.74446 6.29754 2.97017 5.52456 3.42159C4.75158 3.87302 4.13937 4.48522 3.68795 5.2582ZM1.88843 11.3617C1.25149 10.2733 0.933024 9.08291 0.933024 7.79049C0.933024 6.49806 1.25149 5.30612 1.88843 4.21466C2.52537 3.12321 3.38957 2.25901 4.48102 1.62208C5.57248 0.985136 6.76442 0.666667 8.05684 0.666667C9.34927 0.666667 10.5412 0.985136 11.6327 1.62208C12.7241 2.25901 13.5883 3.12321 14.2253 4.21466C14.8622 5.30612 15.1807 6.49806 15.1807 7.79049C15.1807 9.08291 14.8622 10.2749 14.2253 11.3663C13.5883 12.4578 12.7241 13.322 11.6327 13.9589C10.5412 14.5958 9.34927 14.9143 8.05684 14.9143C6.76442 14.9143 5.57248 14.5958 4.48102 13.9589C3.38957 13.322 2.52537 12.4562 1.88843 11.3617Z" fill="white"/>
</g>
</svg>
