<svg width="58" height="58" viewBox="0 0 58 58" fill="none" xmlns="http://www.w3.org/2000/svg">
<rect x="6" y="5" width="48" height="48" rx="2" fill="#F0ECF8"/>
<g clip-path="url(#clip0_1120_9426)">
<path d="M53.4688 14.5H52.2918C53.3433 13.3271 54.0327 11.8747 54.2766 10.3184C54.5206 8.76207 54.3086 7.16843 53.6663 5.73C53.024 4.29158 51.9789 3.06993 50.6573 2.21267C49.3357 1.35541 47.7941 0.899216 46.2188 0.899216C44.6434 0.899216 43.1018 1.35541 41.7802 2.21267C40.4586 3.06993 39.4135 4.29158 38.7712 5.73C38.1289 7.16843 37.9169 8.76207 38.1609 10.3184C38.4048 11.8747 39.0942 13.3271 40.1457 14.5H29V5.4375C29 5.19715 28.9045 4.96664 28.7346 4.79669C28.5646 4.62673 28.3341 4.53125 28.0938 4.53125H24.4688C24.2284 4.53125 23.9979 4.62673 23.8279 4.79669C23.658 4.96664 23.5625 5.19715 23.5625 5.4375V14.5H22.6562V1.8125C22.6562 1.57215 22.5608 1.34164 22.3908 1.17169C22.2209 1.00173 21.9904 0.906253 21.75 0.906253H18.125C17.8846 0.906253 17.6541 1.00173 17.4842 1.17169C17.3142 1.34164 17.2188 1.57215 17.2188 1.8125V14.5H16.3125V8.15625C16.3125 7.9159 16.217 7.68539 16.0471 7.51544C15.8771 7.34548 15.6466 7.25 15.4062 7.25H11.7812C11.5409 7.25 11.3104 7.34548 11.1404 7.51544C10.9705 7.68539 10.875 7.9159 10.875 8.15625V14.5H4.53125C3.57017 14.5011 2.64877 14.8833 1.96918 15.5629C1.28959 16.2425 0.907329 17.1639 0.90625 18.125V45.3125C0.907329 46.2736 1.28959 47.195 1.96918 47.8746C2.64877 48.5542 3.57017 48.9364 4.53125 48.9375H23.2113L22.0026 52.5625H19.0312C18.7909 52.5625 18.5604 52.658 18.3904 52.8279C18.2205 52.9979 18.125 53.2284 18.125 53.4688V55.2813H9.0625C8.82215 55.2813 8.59164 55.3767 8.42168 55.5467C8.25173 55.7166 8.15625 55.9472 8.15625 56.1875C8.15625 56.4279 8.25173 56.6584 8.42168 56.8283C8.59164 56.9983 8.82215 57.0938 9.0625 57.0938H48.9375C49.1779 57.0938 49.4084 56.9983 49.5783 56.8283C49.7483 56.6584 49.8438 56.4279 49.8438 56.1875C49.8438 55.9472 49.7483 55.7166 49.5783 55.5467C49.4084 55.3767 49.1779 55.2813 48.9375 55.2813H39.875V53.4688C39.875 53.2284 39.7795 52.9979 39.6096 52.8279C39.4396 52.658 39.2091 52.5625 38.9688 52.5625H35.9974L34.7887 48.9375H53.4688C54.4298 48.9364 55.3512 48.5542 56.0308 47.8746C56.7104 47.195 57.0927 46.2736 57.0938 45.3125V18.125C57.0927 17.1639 56.7104 16.2425 56.0308 15.5629C55.3512 14.8833 54.4298 14.5011 53.4688 14.5ZM47.125 2.78446C48.4794 2.9821 49.7339 3.61167 50.7017 4.57954C51.6696 5.5474 52.2992 6.80183 52.4968 8.15625H47.125V2.78446ZM46.5937 9.96875H52.4968C52.3403 11.0577 51.903 12.0872 51.2281 12.956C50.5532 13.8248 49.6637 14.503 48.6473 14.9239C47.6308 15.3448 46.5223 15.494 45.4307 15.3567C44.3392 15.2194 43.3021 14.8004 42.4216 14.1409L46.5937 9.96875ZM39.875 9.0625C39.8772 7.53772 40.4276 6.06457 41.4259 4.91199C42.4242 3.75942 43.8036 3.00429 45.3125 2.78446V8.68754L41.1404 12.8597C40.3177 11.7648 39.8736 10.432 39.875 9.0625ZM25.375 6.34375H27.1875V23.5625H25.375V6.34375ZM22.6562 16.3125H23.5625V23.5625H22.6562V16.3125ZM19.0312 2.71875H20.8438V23.5625H19.0312V2.71875ZM16.3125 16.3125H17.2188V23.5625H16.3125V16.3125ZM12.6875 9.0625H14.5V23.5625H12.6875V9.0625ZM38.0625 54.375V55.2813H19.9375V54.375H38.0625ZM23.9137 52.5625L25.1224 48.9375H32.8776L34.0863 52.5625H23.9137ZM55.2812 45.3125C55.2806 45.793 55.0895 46.2537 54.7497 46.5934C54.4099 46.9332 53.9493 47.1244 53.4688 47.125H4.53125C4.05074 47.1244 3.59009 46.9332 3.25031 46.5934C2.91054 46.2537 2.71938 45.793 2.71875 45.3125V43.5H55.2812V45.3125ZM55.2812 41.6875H2.71875V18.125C2.71938 17.6445 2.91054 17.1838 3.25031 16.8441C3.59009 16.5043 4.05074 16.3131 4.53125 16.3125H10.875V23.5625H9.96875V18.125C9.96875 17.8846 9.87327 17.6541 9.70332 17.4842C9.53336 17.3142 9.30285 17.2188 9.0625 17.2188H5.4375C5.19715 17.2188 4.96664 17.3142 4.79668 17.4842C4.62673 17.6541 4.53125 17.8846 4.53125 18.125V24.4688C4.53125 24.7091 4.62673 24.9396 4.79668 25.1096C4.96664 25.2795 5.19715 25.375 5.4375 25.375H34.4375C34.6779 25.375 34.9084 25.2795 35.0783 25.1096C35.2483 24.9396 35.3438 24.7091 35.3438 24.4688V18.125C35.3438 17.8846 35.2483 17.6541 35.0783 17.4842C34.9084 17.3142 34.6779 17.2188 34.4375 17.2188H30.8125C30.5721 17.2188 30.3416 17.3142 30.1717 17.4842C30.0017 17.6541 29.9062 17.8846 29.9062 18.125V23.5625H29V16.3125H42.4895C43.6424 16.908 44.9212 17.2188 46.2188 17.2188C47.5163 17.2188 48.7951 16.908 49.948 16.3125H53.4688C53.9493 16.3131 54.4099 16.5043 54.7497 16.8441C55.0895 17.1838 55.2806 17.6445 55.2812 18.125V41.6875ZM8.15625 19.0313V23.5625H6.34375V19.0313H8.15625ZM31.7188 23.5625V19.0313H33.5312V23.5625H31.7188Z" fill="url(#paint0_linear_1120_9426)"/>
<path d="M10.8752 44.4062H5.43774C5.19738 44.4062 4.96688 44.5017 4.79692 44.6717C4.62697 44.8416 4.53149 45.0721 4.53149 45.3125C4.53149 45.5529 4.62697 45.7834 4.79692 45.9533C4.96688 46.1233 5.19738 46.2188 5.43774 46.2188H10.8752C11.1156 46.2188 11.3461 46.1233 11.5161 45.9533C11.686 45.7834 11.7815 45.5529 11.7815 45.3125C11.7815 45.0721 11.686 44.8416 11.5161 44.6717C11.3461 44.5017 11.1156 44.4062 10.8752 44.4062ZM14.5002 44.4062H13.594C13.3536 44.4062 13.1231 44.5017 12.9532 44.6717C12.7832 44.8416 12.6877 45.0721 12.6877 45.3125C12.6877 45.5529 12.7832 45.7834 12.9532 45.9533C13.1231 46.1233 13.3536 46.2188 13.594 46.2188H14.5002C14.7406 46.2188 14.9711 46.1233 15.1411 45.9533C15.311 45.7834 15.4065 45.5529 15.4065 45.3125C15.4065 45.0721 15.311 44.8416 15.1411 44.6717C14.9711 44.5017 14.7406 44.4062 14.5002 44.4062ZM38.969 23.5625C39.088 23.5627 39.2059 23.5393 39.3159 23.4938C39.4259 23.4482 39.5258 23.3814 39.6098 23.2971L42.9693 19.9375H50.7502C50.9906 19.9375 51.2211 19.842 51.391 19.6721C51.561 19.5021 51.6565 19.2716 51.6565 19.0312C51.6565 18.7909 51.561 18.5604 51.391 18.3904C51.2211 18.2205 50.9906 18.125 50.7502 18.125H42.594C42.475 18.125 42.3571 18.1484 42.2472 18.194C42.1372 18.2395 42.0373 18.3063 41.9532 18.3904L38.3282 22.0154C38.2014 22.1422 38.1151 22.3036 38.0801 22.4794C38.0451 22.6552 38.0631 22.8375 38.1317 23.0031C38.2003 23.1687 38.3164 23.3102 38.4655 23.4098C38.6145 23.5094 38.7897 23.5625 38.969 23.5625ZM50.7502 33.5312C50.274 33.5316 49.8062 33.657 49.3937 33.895C48.9811 34.133 48.6384 34.4751 48.3996 34.8872L38.9123 29.3523C38.7838 28.7347 38.4445 28.1811 37.9526 27.7861C37.4607 27.3912 36.8468 27.1797 36.216 27.1877C35.5852 27.1958 34.9769 27.4229 34.4952 27.8302C34.0135 28.2375 33.6884 28.7996 33.5757 29.4203L24.0283 36.5808C23.7686 36.1808 23.4081 35.8563 22.9832 35.6398C22.5583 35.4233 22.0838 35.3225 21.6076 35.3475C21.1313 35.3725 20.67 35.5225 20.2701 35.7824C19.8702 36.0422 19.5458 36.4027 19.3294 36.8277L9.89309 32.8957C9.7442 32.2749 9.38169 31.7263 8.86902 31.3459C8.35635 30.9654 7.72619 30.7775 7.08888 30.8149C6.45158 30.8523 5.84773 31.1126 5.38307 31.5504C4.91841 31.9882 4.62255 32.5755 4.54729 33.2094C4.47203 33.8434 4.62217 34.4836 4.97141 35.018C5.32066 35.5524 5.84676 35.9469 6.45759 36.1325C7.06843 36.3181 7.72508 36.2829 8.31257 36.033C8.90006 35.7832 9.38096 35.3347 9.67106 34.766L19.1074 38.698C19.2531 39.3043 19.6028 39.8421 20.0979 40.2212C20.593 40.6003 21.2034 40.7976 21.8267 40.78C22.4501 40.7625 23.0484 40.5312 23.5214 40.1249C23.9945 39.7186 24.3134 39.162 24.4248 38.5485L33.9722 31.388C34.2251 31.7776 34.5737 32.0958 34.9847 32.3123C35.3957 32.5287 35.8554 32.6361 36.3198 32.6241C36.7841 32.6122 37.2377 32.4814 37.6371 32.2441C38.0364 32.0069 38.3682 31.6711 38.6008 31.269L48.0881 36.8039C48.1928 37.3071 48.4381 37.7703 48.7953 38.1398C49.1526 38.5093 49.6073 38.77 50.1066 38.8916C50.606 39.0132 51.1296 38.9907 51.6168 38.8268C52.1039 38.6629 52.5346 38.3643 52.8589 37.9656C53.1833 37.5669 53.3879 37.0844 53.4492 36.5741C53.5105 36.0638 53.4258 35.5466 53.2051 35.0824C52.9844 34.6183 52.6366 34.2262 52.2021 33.9516C51.7676 33.6771 51.2642 33.5313 50.7502 33.5312ZM8.15649 33.5358C8.15589 33.7765 8.05975 34.0072 7.88919 34.1771C7.71863 34.3471 7.4876 34.4423 7.24684 34.442C7.00608 34.4417 6.77529 34.3459 6.60516 34.1755C6.43502 34.0052 6.33946 33.7743 6.33946 33.5335C6.33946 33.2928 6.43502 33.0618 6.60516 32.8915C6.77529 32.7212 7.00608 32.6253 7.24684 32.625C7.4876 32.6247 7.71863 32.72 7.88919 32.8899C8.05975 33.0598 8.15589 33.2905 8.15649 33.5312V33.5358ZM21.7502 38.9688C21.51 38.9684 21.2797 38.8728 21.1098 38.7029C20.9399 38.5331 20.8443 38.3028 20.844 38.0625V38.058C20.8449 37.8789 20.8988 37.7042 20.9989 37.5557C21.099 37.4073 21.2409 37.2918 21.4066 37.2239C21.5722 37.156 21.7543 37.1387 21.9298 37.1742C22.1053 37.2097 22.2663 37.2964 22.3926 37.4233C22.5189 37.5502 22.6048 37.7117 22.6394 37.8874C22.674 38.063 22.6558 38.245 22.5871 38.4103C22.5183 38.5757 22.4022 38.7169 22.2532 38.8163C22.1043 38.9157 21.9293 38.9687 21.7502 38.9688ZM36.2502 30.8125C36.071 30.8125 35.8958 30.7593 35.7467 30.6598C35.5977 30.5602 35.4816 30.4187 35.413 30.2531C35.3444 30.0875 35.3264 29.9052 35.3614 29.7294C35.3964 29.5537 35.4827 29.3922 35.6094 29.2654C35.7362 29.1387 35.8976 29.0524 36.0734 29.0174C36.2492 28.9824 36.4314 29.0004 36.597 29.069C36.7626 29.1376 36.9042 29.2537 37.0038 29.4028C37.1033 29.5518 37.1565 29.727 37.1565 29.9062C37.1562 30.1465 37.0606 30.3768 36.8907 30.5467C36.7208 30.7166 36.4905 30.8122 36.2502 30.8125ZM50.7502 37.1562C50.571 37.1562 50.3958 37.1031 50.2467 37.0035C50.0977 36.9039 49.9816 36.7624 49.913 36.5968C49.8444 36.4312 49.8264 36.249 49.8614 36.0732C49.8964 35.8974 49.9827 35.7359 50.1094 35.6092C50.2362 35.4824 50.3976 35.3961 50.5734 35.3612C50.7492 35.3262 50.9314 35.3441 51.097 35.4127C51.2626 35.4813 51.4042 35.5975 51.5038 35.7465C51.6033 35.8955 51.6565 36.0708 51.6565 36.25C51.6562 36.4903 51.5606 36.7206 51.3907 36.8904C51.2208 37.0603 50.9905 37.1559 50.7502 37.1562Z" fill="url(#paint1_linear_1120_9426)"/>
<path d="M43.5 38.9688H37.1562C36.9159 38.9688 36.6854 39.0642 36.5154 39.2342C36.3455 39.4041 36.25 39.6346 36.25 39.875C36.25 40.1154 36.3455 40.3459 36.5154 40.5158C36.6854 40.6858 36.9159 40.7812 37.1562 40.7812H43.5C43.7404 40.7812 43.9709 40.6858 44.1408 40.5158C44.3108 40.3459 44.4062 40.1154 44.4062 39.875C44.4062 39.6346 44.3108 39.4041 44.1408 39.2342C43.9709 39.0642 43.7404 38.9688 43.5 38.9688ZM43.5 36.25H40.7812C40.5409 36.25 40.3104 36.3455 40.1404 36.5154C39.9705 36.6854 39.875 36.9159 39.875 37.1562C39.875 37.3966 39.9705 37.6271 40.1404 37.7971C40.3104 37.967 40.5409 38.0625 40.7812 38.0625H43.5C43.7404 38.0625 43.9709 37.967 44.1408 37.7971C44.3108 37.6271 44.4062 37.3966 44.4062 37.1562C44.4062 36.9159 44.3108 36.6854 44.1408 36.5154C43.9709 36.3455 43.7404 36.25 43.5 36.25ZM5.4375 28.0938H15.4062C15.6466 28.0938 15.8771 27.9983 16.0471 27.8283C16.217 27.6584 16.3125 27.4279 16.3125 27.1875C16.3125 26.9471 16.217 26.7166 16.0471 26.5467C15.8771 26.3767 15.6466 26.2812 15.4062 26.2812H5.4375C5.19715 26.2812 4.96664 26.3767 4.79668 26.5467C4.62673 26.7166 4.53125 26.9471 4.53125 27.1875C4.53125 27.4279 4.62673 27.6584 4.79668 27.8283C4.96664 27.9983 5.19715 28.0938 5.4375 28.0938ZM18.125 28.0938H19.0312C19.2716 28.0938 19.5021 27.9983 19.6721 27.8283C19.842 27.6584 19.9375 27.4279 19.9375 27.1875C19.9375 26.9471 19.842 26.7166 19.6721 26.5467C19.5021 26.3767 19.2716 26.2812 19.0312 26.2812H18.125C17.8846 26.2812 17.6541 26.3767 17.4842 26.5467C17.3142 26.7166 17.2188 26.9471 17.2188 27.1875C17.2188 27.4279 17.3142 27.6584 17.4842 27.8283C17.6541 27.9983 17.8846 28.0938 18.125 28.0938Z" fill="url(#paint2_linear_1120_9426)"/>
</g>
<defs>
<linearGradient id="paint0_linear_1120_9426" x1="0.90625" y1="28.9965" x2="61.0955" y2="28.9965" gradientUnits="userSpaceOnUse">
<stop stop-color="#673EB6"/>
<stop offset="1" stop-color="#291949"/>
</linearGradient>
<linearGradient id="paint1_linear_1120_9426" x1="4.52832" y1="32.1719" x2="56.9542" y2="32.1719" gradientUnits="userSpaceOnUse">
<stop stop-color="#673EB6"/>
<stop offset="1" stop-color="#291949"/>
</linearGradient>
<linearGradient id="paint2_linear_1120_9426" x1="4.53125" y1="33.5313" x2="47.2462" y2="33.5313" gradientUnits="userSpaceOnUse">
<stop stop-color="#673EB6"/>
<stop offset="1" stop-color="#291949"/>
</linearGradient>
<clipPath id="clip0_1120_9426">
<rect width="58" height="58" fill="white"/>
</clipPath>
</defs>
</svg>
