<svg width="18" height="18" viewBox="0 0 18 18" fill="none" xmlns="http://www.w3.org/2000/svg">
<g id="Frame 193">
<g id="Group">
<path id="Vector" d="M9 0C4.03725 0 0 4.03557 0 8.99625V13.8767C0 14.8738 0.39 15.8184 1.0875 16.5231L2.1225 17.5652L3.6225 18H3.645C4.8825 18 5.895 16.9879 5.895 15.7509V11.3278C5.895 10.0908 4.8825 9.07872 3.645 9.07872H3.6225L2.1225 9.52103L1.5 10.1463V8.99625C1.5 4.86247 4.8645 1.49938 9 1.49938C13.1355 1.49938 16.5 4.86247 16.5 8.99625V10.1455L15.8775 9.52103L14.3775 9.07872H14.355C13.1175 9.07872 12.105 10.0908 12.105 11.3278V15.7509C12.105 16.9879 13.1175 18 14.355 18H14.3775L15.8775 17.5652L16.9125 16.5231C17.61 15.8184 18 14.8738 18 13.8767V8.99625C18 4.03557 13.9628 0 9 0Z" fill="white"/>
</g>
</g>
</svg>
