<svg width="58" height="58" viewBox="0 0 58 58" fill="none" xmlns="http://www.w3.org/2000/svg">
<rect x="6" y="5" width="48" height="48" rx="2" fill="#F0ECF8"/>
<g clip-path="url(#clip0_1120_9467)">
<path d="M48.9299 15.3589H40.0208C39.5515 15.3589 39.1712 15.7392 39.1712 16.2085C39.1712 16.6778 39.5515 17.0581 40.0208 17.0581H48.9299C49.3992 17.0581 49.7795 16.6778 49.7795 16.2085C49.7795 15.7392 49.3991 15.3589 48.9299 15.3589ZM49.7795 20.4818C49.7795 20.0125 49.3992 19.6322 48.9299 19.6322H40.0208C39.5515 19.6322 39.1712 20.0125 39.1712 20.4818C39.1712 20.9511 39.5515 21.3314 40.0208 21.3314H48.9299C49.1553 21.3314 49.3714 21.2419 49.5307 21.0826C49.69 20.9233 49.7795 20.7071 49.7795 20.4818ZM40.0207 23.9054C39.5514 23.9054 39.1711 24.2857 39.1711 24.755C39.1711 25.2243 39.5514 25.6046 40.0207 25.6046H45.9071C46.3764 25.6046 46.7567 25.2243 46.7567 24.755C46.7567 24.2857 46.3764 23.9054 45.9071 23.9054H40.0207ZM56.1822 52.0527H51.3823V37.5395C51.3823 36.8836 50.8488 36.35 50.1929 36.35H29.8494V33.7578C29.8494 33.2885 29.4691 32.9082 28.9998 32.9082C28.5305 32.9082 28.1502 33.2885 28.1502 33.7578V36.35H12.2729V24.3729H16.8893V27.6363C16.8893 28.2922 17.4229 28.8258 18.0788 28.8258H22.3443C23.0002 28.8258 23.5337 28.2922 23.5337 27.6363V24.3729H28.1502V29.793C28.1502 30.2623 28.5305 30.6426 28.9998 30.6426C29.4691 30.6426 29.8494 30.2623 29.8494 29.793V23.8632C29.8494 23.2073 29.3158 22.6737 28.6599 22.6737H11.7631C11.1072 22.6737 10.5737 23.2073 10.5737 23.8632V36.35H7.80668C7.15078 36.35 6.61722 36.8836 6.61722 37.5395V52.0527H1.81738C1.16148 52.0527 0.62793 52.5863 0.62793 53.2422V56.8106C0.62793 57.4664 1.16148 58 1.81738 58H56.1822C56.8381 58 57.3716 57.4664 57.3716 56.8106V53.2422C57.3716 52.5863 56.8381 52.0527 56.1822 52.0527ZM18.5886 24.373H21.8345V27.1266H18.5886V24.373ZM40.1215 38.0492H43.3675V40.8029H40.1215V38.0492ZM18.3056 38.0492H22.1175V40.8029H18.3056V38.0492ZM8.31644 38.0492H16.6064V41.3127C16.6064 41.9686 17.1399 42.5021 17.7958 42.5021H22.6273C23.2832 42.5021 23.8167 41.9686 23.8167 41.3127V38.0492H32.1066V52.0527H8.31644V38.0492ZM55.6724 56.3008H2.32715V53.752H43.1599C43.6293 53.752 44.0095 53.3717 44.0095 52.9023C44.0095 52.433 43.6293 52.0527 43.1599 52.0527H33.8059V38.0492H38.4223V41.3127C38.4223 41.9686 38.9558 42.5021 39.6117 42.5021H43.8772C44.5331 42.5021 45.0667 41.9686 45.0667 41.3127V38.0492H49.6831V52.0527H47.1248C46.6555 52.0527 46.2752 52.433 46.2752 52.9023C46.2752 53.3717 46.6555 53.752 47.1248 53.752H55.6724V56.3008Z" fill="url(#paint0_linear_1120_9467)"/>
<path d="M33.8546 14.9072V30.3672C33.8546 31.0231 34.3882 31.5566 35.0441 31.5566H53.9072C54.5631 31.5566 55.0966 31.0231 55.0966 30.3672V22.6562C55.0966 22.1869 54.7164 21.8066 54.247 21.8066C53.7777 21.8066 53.3974 22.1869 53.3974 22.6562V29.8574H35.5538V15.1037L35.5598 15.1038C37.6936 15.1038 39.6221 14.2127 40.9969 12.7849H48.9302C49.3995 12.7849 49.7798 12.4046 49.7798 11.9353C49.7798 11.466 49.3995 11.0857 48.9302 11.0857H42.2311C42.9252 9.78219 43.2193 8.30281 43.0765 6.8329H53.3973V18.6914C53.3973 19.1607 53.7776 19.541 54.2469 19.541C54.7162 19.541 55.0965 19.1607 55.0965 18.6914V6.32313C55.0965 5.66723 54.563 5.13368 53.9071 5.13368H42.7122C41.7015 2.15246 38.8782 0 35.5597 0C31.3956 0 28.0078 3.38779 28.0078 7.55189C28.0078 11.1294 30.5093 14.1318 33.8546 14.9072ZM35.5597 1.69922C38.7869 1.69922 41.4124 4.32474 41.4124 7.55189C41.4124 10.7791 38.7869 13.4046 35.5597 13.4046C32.3326 13.4046 29.707 10.7791 29.707 7.55189C29.707 4.32474 32.3326 1.69922 35.5597 1.69922Z" fill="url(#paint1_linear_1120_9467)"/>
<path d="M34.5328 10.0479C34.6117 10.1269 34.7053 10.1896 34.8084 10.2322C34.9116 10.2749 35.0221 10.2968 35.1337 10.2967C35.2453 10.2968 35.3558 10.2749 35.4589 10.2323C35.562 10.1896 35.6556 10.1269 35.7344 10.0479L39.1895 6.59296C39.2698 6.51439 39.3337 6.42068 39.3775 6.31724C39.4213 6.21381 39.4442 6.10272 39.4448 5.99038C39.4454 5.87805 39.4237 5.76671 39.381 5.66281C39.3383 5.55891 39.2755 5.46451 39.196 5.38507C39.1166 5.30563 39.0222 5.24273 38.9183 5.20001C38.8144 5.15729 38.7031 5.13559 38.5908 5.13618C38.4784 5.13677 38.3673 5.15963 38.2639 5.20343C38.1605 5.24724 38.0667 5.31112 37.9881 5.39139L35.1338 8.24562L33.1311 6.24281C32.9718 6.08347 32.7556 5.99396 32.5303 5.99396C32.305 5.99396 32.0889 6.08347 31.9295 6.24281C31.7702 6.40215 31.6807 6.61826 31.6807 6.8436C31.6807 7.06894 31.7702 7.28505 31.9295 7.44439L34.5328 10.0479Z" fill="url(#paint2_linear_1120_9467)"/>
</g>
<defs>
<linearGradient id="paint0_linear_1120_9467" x1="0.62793" y1="36.6795" x2="61.413" y2="36.6795" gradientUnits="userSpaceOnUse">
<stop stop-color="#673EB6"/>
<stop offset="1" stop-color="#291949"/>
</linearGradient>
<linearGradient id="paint1_linear_1120_9467" x1="28.0078" y1="15.7783" x2="57.0259" y2="15.7783" gradientUnits="userSpaceOnUse">
<stop stop-color="#673EB6"/>
<stop offset="1" stop-color="#291949"/>
</linearGradient>
<linearGradient id="paint2_linear_1120_9467" x1="31.6807" y1="7.71643" x2="39.9978" y2="7.71643" gradientUnits="userSpaceOnUse">
<stop stop-color="#673EB6"/>
<stop offset="1" stop-color="#291949"/>
</linearGradient>
<clipPath id="clip0_1120_9467">
<rect width="58" height="58" fill="white"/>
</clipPath>
</defs>
</svg>
