<svg width="64" height="64" viewBox="0 0 64 64" fill="none" xmlns="http://www.w3.org/2000/svg">
<g id="vuesax/linear/call-calling">
<g id="call-calling">
<g id="call-calling_2">
<path id="Vector" d="M55.9203 51.5467C55.9203 52.5067 55.707 53.4933 55.2537 54.4533C54.8003 55.4133 54.2137 56.32 53.4403 57.1733C52.1337 58.6133 50.6937 59.6533 49.067 60.32C47.467 60.9867 45.7337 61.3333 43.867 61.3333C41.147 61.3333 38.2403 60.6933 35.1737 59.3867C32.107 58.08 29.0403 56.32 26.0003 54.1067C22.9337 51.8667 20.027 49.3867 17.2537 46.64C14.507 43.8667 12.027 40.96 9.81366 37.92C7.62699 34.88 5.86699 31.84 4.58699 28.8267C3.30699 25.7867 2.66699 22.88 2.66699 20.1067C2.66699 18.2933 2.98699 16.56 3.62699 14.96C4.26699 13.3333 5.28033 11.84 6.69366 10.5067C8.40033 8.82667 10.267 8 12.2403 8C12.987 8 13.7337 8.16 14.4003 8.48C15.0937 8.8 15.707 9.28 16.187 9.97333L22.3737 18.6933C22.8537 19.36 23.2003 19.9733 23.4403 20.56C23.6803 21.12 23.8137 21.68 23.8137 22.1867C23.8137 22.8267 23.627 23.4667 23.2537 24.08C22.907 24.6933 22.4003 25.3333 21.7603 25.9733L19.7337 28.08C19.4403 28.3733 19.307 28.72 19.307 29.1467C19.307 29.36 19.3337 29.5467 19.387 29.76C19.467 29.9733 19.547 30.1333 19.6003 30.2933C20.0803 31.1733 20.907 32.32 22.0803 33.7067C23.2803 35.0933 24.5603 36.5067 25.947 37.92C27.387 39.3333 28.7737 40.64 30.187 41.84C31.5737 43.0133 32.7203 43.8133 33.627 44.2933C33.7603 44.3467 33.9203 44.4267 34.107 44.5067C34.3203 44.5867 34.5337 44.6133 34.7737 44.6133C35.227 44.6133 35.5737 44.4533 35.867 44.16L37.8937 42.16C38.5603 41.4933 39.2003 40.9867 39.8137 40.6667C40.427 40.2933 41.0403 40.1067 41.707 40.1067C42.2137 40.1067 42.747 40.2133 43.3337 40.4533C43.9203 40.6933 44.5337 41.04 45.2003 41.4933L54.027 47.76C54.7203 48.24 55.2003 48.8 55.4937 49.4667C55.7603 50.1333 55.9203 50.8 55.9203 51.5467Z" stroke="#3B3D3B" stroke-width="1.8" stroke-miterlimit="10"/>
<path id="Vector_2" d="M46.6673 26.6666C46.6673 25.0666 45.414 22.6133 43.5473 20.6133C41.8407 18.7733 39.574 17.3333 37.334 17.3333" stroke="#3B3D3B" stroke-width="1.8" stroke-linecap="round" stroke-linejoin="round"/>
<path id="Vector_3" d="M56.0007 26.6667C56.0007 16.3467 47.654 8 37.334 8" stroke="#3B3D3B" stroke-width="1.8" stroke-linecap="round" stroke-linejoin="round"/>
</g>
</g>
</g>
</svg>
