<svg width="58" height="58" viewBox="0 0 58 58" fill="none" xmlns="http://www.w3.org/2000/svg">
<rect x="6" y="5" width="48" height="48" rx="2" fill="#F0ECF8"/>
<g clip-path="url(#clip0_1120_11520)">
<path d="M37.0006 15.0734C38.5621 15.0734 39.8326 13.803 39.8326 12.2414C39.8326 10.6798 38.5621 9.40926 37.0006 9.40926C35.439 9.40926 34.1685 10.6798 34.1685 12.2414C34.1685 12.8792 34.3806 13.4682 34.7378 13.9422L30.0846 20.4447C29.8001 20.3511 29.5024 20.3034 29.2029 20.3034C28.4587 20.3034 27.7811 20.5924 27.2751 21.0634L24.1736 19.3035C24.2158 19.1078 24.2371 18.9081 24.2372 18.7079C24.2372 17.1464 22.9667 15.8759 21.4051 15.8759C19.8436 15.8759 18.5731 17.1464 18.5731 18.7079C18.5731 18.9122 18.5953 19.1113 18.6367 19.3035L15.5351 21.0634C15.0292 20.5924 14.3516 20.3035 13.6074 20.3035C12.0458 20.3035 10.7754 21.5741 10.7754 23.1357C10.7754 24.6972 12.0458 25.9678 13.6074 25.9678C15.169 25.9678 16.4395 24.6972 16.4395 23.1357C16.4394 22.9355 16.4181 22.7358 16.3759 22.5401L19.4774 20.7802C19.9833 21.2512 20.661 21.5402 21.4051 21.5402C22.1493 21.5402 22.8268 21.2512 23.3328 20.7803L26.4344 22.5403C26.3922 22.7359 26.3709 22.9356 26.3708 23.1358C26.3708 24.6974 27.6413 25.9679 29.2029 25.9679C30.7645 25.9679 32.035 24.6974 32.035 23.1358C32.0356 22.5219 31.8357 21.9246 31.4656 21.4347L36.1188 14.9323C36.4034 15.0258 36.701 15.0735 37.0006 15.0734ZM37.0006 11.1085C37.6252 11.1085 38.1334 11.6167 38.1334 12.2414C38.1334 12.866 37.6252 13.3742 37.0006 13.3742C36.3759 13.3742 35.8678 12.866 35.8678 12.2414C35.8676 11.6167 36.3758 11.1085 37.0006 11.1085ZM13.6071 24.2684C12.9824 24.2684 12.4743 23.7602 12.4743 23.1354C12.4743 22.5107 12.9824 22.0025 13.6071 22.0025C14.2317 22.0025 14.7399 22.5107 14.7399 23.1354C14.7399 23.7602 14.2317 24.2684 13.6071 24.2684ZM21.4049 19.8408C20.7803 19.8408 20.2721 19.3326 20.2721 18.7078C20.2721 18.0832 20.7803 17.575 21.4049 17.575C22.0295 17.575 22.5377 18.0832 22.5377 18.7078C22.5378 19.3326 22.0295 19.8408 21.4049 19.8408ZM29.2027 24.2684C28.5781 24.2684 28.0699 23.7602 28.0699 23.1354C28.0699 22.5107 28.5781 22.0025 29.2027 22.0025C29.8275 22.0025 30.3357 22.5107 30.3357 23.1354C30.3357 23.7602 29.8274 24.2684 29.2027 24.2684Z" fill="url(#paint0_linear_1120_11520)"/>
<path d="M47.4417 42.7031H2.40326C2.2166 42.7029 2.03765 42.6286 1.90566 42.4966C1.77367 42.3646 1.69943 42.1857 1.69922 41.999V6.94766C1.69943 6.761 1.77367 6.58204 1.90566 6.45006C2.03765 6.31807 2.2166 6.24383 2.40326 6.24362H6.40843C6.87764 6.24362 7.25804 5.86333 7.25804 5.39401C7.25804 4.92468 6.87764 4.5444 6.40843 4.5444H2.40326C1.0781 4.5444 0 5.62249 0 6.94766V41.999C0 43.3242 1.0781 44.4023 2.40326 44.4023H8.26137V46.2721C8.26137 47.3373 9.12798 48.2039 10.1932 48.2039H18.6976L14.6943 56.0201C14.594 56.2203 14.5769 56.4521 14.6466 56.6649C14.7164 56.8778 14.8673 57.0545 15.0667 57.1566C15.266 57.2587 15.4976 57.2779 15.7111 57.2102C15.9246 57.1424 16.1026 56.9931 16.2066 56.7947L20.6068 48.2039H30.0003L34.4005 56.7947C34.4513 56.894 34.5212 56.9824 34.6062 57.0547C34.6912 57.127 34.7896 57.1818 34.8957 57.2161C35.0019 57.2503 35.1138 57.2633 35.225 57.2543C35.3363 57.2453 35.4446 57.2145 35.5439 57.1636C35.6432 57.1128 35.7315 57.0429 35.8038 56.9579C35.8761 56.8728 35.9309 56.7744 35.9652 56.6683C35.9994 56.5621 36.0124 56.4502 36.0034 56.3389C35.9944 56.2277 35.9636 56.1194 35.9128 56.0201L31.9094 48.2039H40.4139C41.4791 48.2039 42.3457 47.3374 42.3457 46.2721V44.4023H47.4417C47.9109 44.4023 48.2913 44.022 48.2913 43.5527C48.2913 43.0834 47.9109 42.7031 47.4417 42.7031ZM40.6464 46.2721C40.6464 46.3338 40.6219 46.3929 40.5783 46.4365C40.5347 46.4801 40.4755 46.5046 40.4139 46.5047H10.1932C10.1315 46.5046 10.0724 46.4801 10.0288 46.4365C9.98517 46.3929 9.96065 46.3338 9.96059 46.2721V44.4023H40.6464V46.2721ZM9.80687 6.24362H48.2037C48.3903 6.24383 48.5693 6.31807 48.7013 6.45006C48.8332 6.58204 48.9075 6.761 48.9077 6.94766V15.0259C48.9077 15.4952 49.2881 15.8755 49.7573 15.8755C50.2265 15.8755 50.6069 15.4952 50.6069 15.0259V6.94766C50.6069 5.62249 49.5288 4.5444 48.2037 4.5444H30.019V2.8744C30.019 1.69911 29.0628 0.742905 27.8873 0.742905H22.7197C21.5444 0.742905 20.5881 1.69911 20.5881 2.8744V4.5444H9.80687C9.33766 4.5444 8.95726 4.92468 8.95726 5.39401C8.95726 5.86333 9.33766 6.24362 9.80687 6.24362ZM22.2873 2.8744C22.2874 2.75977 22.333 2.64987 22.4141 2.56883C22.4951 2.48778 22.6051 2.44221 22.7197 2.44212H27.8873C28.002 2.44224 28.1119 2.48782 28.1929 2.56886C28.274 2.6499 28.3196 2.75978 28.3197 2.8744V4.5444H22.2874V2.8744H22.2873Z" fill="url(#paint1_linear_1120_11520)"/>
<path d="M11.8838 30.3113C11.6585 30.3113 11.4424 30.4009 11.283 30.5602C11.1237 30.7195 11.0342 30.9356 11.0342 31.161V38.6683C11.0342 38.8937 11.1237 39.1098 11.283 39.2691C11.4424 39.4284 11.6585 39.5179 11.8838 39.5179H15.3306C15.5559 39.5179 15.772 39.4284 15.9314 39.2691C16.0907 39.1098 16.1802 38.8937 16.1802 38.6683V31.161C16.1802 30.9356 16.0907 30.7195 15.9314 30.5602C15.772 30.4009 15.5559 30.3113 15.3306 30.3113H11.8838ZM14.481 37.8188H12.7334V32.0107H14.481V37.8188ZM19.6815 25.9695C19.4562 25.9695 19.2401 26.059 19.0807 26.2184C18.9214 26.3777 18.8319 26.5938 18.8319 26.8191V38.6684C18.8319 38.8938 18.9214 39.1099 19.0807 39.2692C19.2401 39.4285 19.4562 39.5181 19.6815 39.5181H23.1283C23.3536 39.5181 23.5697 39.4285 23.7291 39.2692C23.8884 39.1099 23.9779 38.8938 23.9779 38.6684V26.8191C23.9779 26.5938 23.8884 26.3777 23.7291 26.2184C23.5697 26.059 23.3536 25.9695 23.1283 25.9695H19.6815ZM22.2788 37.8188H20.5312V27.6687H22.2788V37.8188ZM27.4793 30.3113C27.254 30.3113 27.0379 30.4009 26.8786 30.5602C26.7192 30.7195 26.6297 30.9356 26.6297 31.161V38.6683C26.6297 38.8937 26.7192 39.1098 26.8786 39.2691C27.0379 39.4284 27.254 39.5179 27.4793 39.5179H30.9261C31.1515 39.5179 31.3676 39.4284 31.5269 39.2691C31.6862 39.1098 31.7757 38.8937 31.7757 38.6683V31.161C31.7757 30.9356 31.6862 30.7195 31.5269 30.5602C31.3676 30.4009 31.1515 30.3113 30.9261 30.3113H27.4793ZM30.0765 37.8188H28.3289V32.0107H30.0765V37.8188ZM35.2772 35.3247C35.0518 35.3247 34.8357 35.4142 34.6764 35.5736C34.5171 35.7329 34.4275 35.949 34.4275 36.1743V38.6684C34.4275 38.8938 34.5171 39.1099 34.6764 39.2692C34.8357 39.4285 35.0518 39.5181 35.2772 39.5181H38.724C39.1932 39.5181 39.5736 39.1378 39.5736 38.6684C39.5736 38.1991 39.1932 37.8188 38.724 37.8188H36.1268V36.1743C36.1268 35.949 36.0373 35.7329 35.8779 35.5736C35.7186 35.4142 35.5025 35.3247 35.2772 35.3247ZM57.5671 43.5022L52.6929 35.0598C53.9278 33.7435 54.827 32.1353 55.3073 30.3427C56.075 27.4777 55.681 24.4852 54.198 21.9164C51.1364 16.6134 44.3315 14.7903 39.0288 17.8518C33.726 20.9132 31.9027 27.7181 34.9643 33.0209C36.4474 35.5897 38.842 37.4271 41.707 38.1949C42.6501 38.4486 43.6224 38.5774 44.5991 38.578C45.4421 38.578 46.2803 38.4811 47.1 38.2892L51.9731 46.7318C52.5704 47.7669 53.6582 48.3461 54.7754 48.346C55.3228 48.346 55.8775 48.2067 56.3849 47.914C57.3813 47.3389 58.0004 46.2664 58.0004 45.1153C58.0004 44.5513 57.8506 43.9936 57.5671 43.5022ZM42.1468 36.5536C39.7202 35.9034 37.6919 34.347 36.4357 32.1713C33.8427 27.6799 35.387 21.9164 39.8783 19.3233C41.3558 18.4703 42.9704 18.0652 44.5652 18.0652C47.8181 18.0652 50.9863 19.7523 52.7263 22.766C53.9824 24.9417 54.3161 27.4763 53.6659 29.903C53.0156 32.3297 51.4593 34.3578 49.2836 35.6139C47.108 36.8701 44.5735 37.2036 42.1468 36.5536ZM55.5356 46.4423C54.8046 46.8643 53.8666 46.6131 53.4449 45.8824L48.7564 37.7597C49.2302 37.5665 49.6902 37.3413 50.1334 37.0856C50.5765 36.8291 51.0015 36.5428 51.4056 36.2285L56.0954 44.3515C56.2297 44.5838 56.3006 44.8472 56.3011 45.1154C56.3008 45.3842 56.2299 45.6482 56.0956 45.8811C55.9612 46.1139 55.7681 46.3074 55.5356 46.4423Z" fill="url(#paint2_linear_1120_11520)"/>
<path d="M52.2842 29.8622C52.8841 27.9301 52.7412 25.8615 51.882 24.0377C51.8352 23.9356 51.7686 23.8438 51.6861 23.7676C51.6036 23.6914 51.5068 23.6323 51.4013 23.5937C51.2958 23.5552 51.1837 23.5379 51.0715 23.543C50.9593 23.548 50.8492 23.5753 50.7476 23.6231C50.646 23.671 50.5549 23.7385 50.4795 23.8218C50.4042 23.9051 50.3461 24.0026 50.3087 24.1085C50.2712 24.2143 50.2551 24.3266 50.2613 24.4388C50.2676 24.5509 50.2959 24.6607 50.3449 24.7618C51.0226 26.2005 51.1351 27.8327 50.6615 29.3582C50.1853 30.892 49.1564 32.1792 47.7646 32.9829C46.2917 33.8334 44.5756 34.059 42.9329 33.6189C41.2901 33.1787 39.9169 32.1251 39.0666 30.6522C37.3111 27.6116 38.3567 23.7098 41.3972 21.9542C42.4816 21.3264 43.7273 21.0329 44.9779 21.1106C46.2285 21.1884 47.4282 21.6339 48.4265 22.3912C48.5154 22.4585 48.6168 22.5077 48.7247 22.5358C48.8327 22.564 48.9451 22.5706 49.0557 22.5553C49.1662 22.54 49.2726 22.5031 49.3689 22.4466C49.4651 22.3902 49.5493 22.3153 49.6166 22.2263C49.7525 22.0467 49.8115 21.8203 49.7806 21.5971C49.7497 21.3739 49.6313 21.1722 49.4516 21.0362C48.1872 20.0769 46.6674 19.5125 45.0832 19.414C43.4991 19.3155 41.9211 19.6873 40.5475 20.4826C38.6815 21.5599 37.3468 23.2995 36.7891 25.3807C36.2314 27.4619 36.5177 29.6357 37.595 31.5017C38.6723 33.3678 40.4118 34.7025 42.493 35.2603C43.1781 35.4445 43.8845 35.5381 44.5939 35.5386C45.9916 35.5386 47.3712 35.172 48.614 34.4544C50.3775 33.4364 51.6809 31.8056 52.2842 29.8622Z" fill="url(#paint3_linear_1120_11520)"/>
</g>
<defs>
<linearGradient id="paint0_linear_1120_11520" x1="10.7754" y1="17.6886" x2="41.9021" y2="17.6886" gradientUnits="userSpaceOnUse">
<stop stop-color="#673EB6"/>
<stop offset="1" stop-color="#291949"/>
</linearGradient>
<linearGradient id="paint1_linear_1120_11520" x1="0" y1="29" x2="54.2112" y2="29" gradientUnits="userSpaceOnUse">
<stop stop-color="#673EB6"/>
<stop offset="1" stop-color="#291949"/>
</linearGradient>
<linearGradient id="paint2_linear_1120_11520" x1="11.0342" y1="32.3561" x2="61.3453" y2="32.3561" gradientUnits="userSpaceOnUse">
<stop stop-color="#673EB6"/>
<stop offset="1" stop-color="#291949"/>
</linearGradient>
<linearGradient id="paint3_linear_1120_11520" x1="36.5107" y1="27.4685" x2="53.7987" y2="27.4685" gradientUnits="userSpaceOnUse">
<stop stop-color="#673EB6"/>
<stop offset="1" stop-color="#291949"/>
</linearGradient>
<clipPath id="clip0_1120_11520">
<rect width="58" height="58" fill="white"/>
</clipPath>
</defs>
</svg>
