<svg width="66" height="66" viewBox="0 0 66 66" fill="none" xmlns="http://www.w3.org/2000/svg">
<g filter="url(#filter0_d_1120_9385)">
<rect x="10" y="5" width="48" height="48" rx="2" fill="#F0ECF8"/>
<rect x="10" y="5" width="48" height="48" rx="2" fill="#F0ECF8"/>
<g clip-path="url(#clip0_1120_9385)">
<path d="M41.0006 15.0734C42.5621 15.0734 43.8326 13.803 43.8326 12.2414C43.8326 10.6798 42.5621 9.40926 41.0006 9.40926C39.439 9.40926 38.1685 10.6798 38.1685 12.2414C38.1685 12.8792 38.3806 13.4682 38.7378 13.9422L34.0846 20.4447C33.8001 20.3511 33.5024 20.3034 33.2029 20.3034C32.4587 20.3034 31.7811 20.5924 31.2751 21.0634L28.1736 19.3035C28.2158 19.1078 28.2371 18.9081 28.2372 18.7079C28.2372 17.1464 26.9667 15.8759 25.4051 15.8759C23.8436 15.8759 22.5731 17.1464 22.5731 18.7079C22.5731 18.9122 22.5953 19.1113 22.6367 19.3035L19.5351 21.0634C19.0292 20.5924 18.3516 20.3035 17.6074 20.3035C16.0458 20.3035 14.7754 21.5741 14.7754 23.1357C14.7754 24.6972 16.0458 25.9678 17.6074 25.9678C19.169 25.9678 20.4395 24.6972 20.4395 23.1357C20.4394 22.9355 20.4181 22.7358 20.3759 22.5401L23.4774 20.7802C23.9833 21.2512 24.661 21.5402 25.4051 21.5402C26.1493 21.5402 26.8268 21.2512 27.3328 20.7803L30.4344 22.5403C30.3922 22.7359 30.3709 22.9356 30.3708 23.1358C30.3708 24.6974 31.6413 25.9679 33.2029 25.9679C34.7645 25.9679 36.035 24.6974 36.035 23.1358C36.0356 22.5219 35.8357 21.9246 35.4656 21.4347L40.1188 14.9323C40.4034 15.0258 40.701 15.0735 41.0006 15.0734ZM41.0006 11.1085C41.6252 11.1085 42.1334 11.6167 42.1334 12.2414C42.1334 12.866 41.6252 13.3742 41.0006 13.3742C40.3759 13.3742 39.8678 12.866 39.8678 12.2414C39.8676 11.6167 40.3758 11.1085 41.0006 11.1085ZM17.6071 24.2684C16.9824 24.2684 16.4743 23.7602 16.4743 23.1354C16.4743 22.5107 16.9824 22.0025 17.6071 22.0025C18.2317 22.0025 18.7399 22.5107 18.7399 23.1354C18.7399 23.7602 18.2317 24.2684 17.6071 24.2684ZM25.4049 19.8408C24.7803 19.8408 24.2721 19.3326 24.2721 18.7078C24.2721 18.0832 24.7803 17.575 25.4049 17.575C26.0295 17.575 26.5377 18.0832 26.5377 18.7078C26.5378 19.3326 26.0295 19.8408 25.4049 19.8408ZM33.2027 24.2684C32.5781 24.2684 32.0699 23.7602 32.0699 23.1354C32.0699 22.5107 32.5781 22.0025 33.2027 22.0025C33.8275 22.0025 34.3357 22.5107 34.3357 23.1354C34.3357 23.7602 33.8274 24.2684 33.2027 24.2684Z" fill="url(#paint0_linear_1120_9385)"/>
<path d="M51.4417 42.7031H6.40326C6.2166 42.7029 6.03765 42.6286 5.90566 42.4966C5.77367 42.3646 5.69943 42.1857 5.69922 41.999V6.94766C5.69943 6.761 5.77367 6.58204 5.90566 6.45006C6.03765 6.31807 6.2166 6.24383 6.40326 6.24362H10.4084C10.8776 6.24362 11.258 5.86333 11.258 5.39401C11.258 4.92468 10.8776 4.5444 10.4084 4.5444H6.40326C5.0781 4.5444 4 5.62249 4 6.94766V41.999C4 43.3242 5.0781 44.4023 6.40326 44.4023H12.2614V46.2721C12.2614 47.3373 13.128 48.2039 14.1932 48.2039H22.6976L18.6943 56.0201C18.594 56.2203 18.5769 56.4521 18.6466 56.6649C18.7164 56.8778 18.8673 57.0545 19.0667 57.1566C19.266 57.2587 19.4976 57.2779 19.7111 57.2102C19.9246 57.1424 20.1026 56.9931 20.2066 56.7947L24.6068 48.2039H34.0003L38.4005 56.7947C38.4513 56.894 38.5212 56.9824 38.6062 57.0547C38.6912 57.127 38.7896 57.1818 38.8957 57.2161C39.0019 57.2503 39.1138 57.2633 39.225 57.2543C39.3363 57.2453 39.4446 57.2145 39.5439 57.1636C39.6432 57.1128 39.7315 57.0429 39.8038 56.9579C39.8761 56.8728 39.9309 56.7744 39.9652 56.6683C39.9994 56.5621 40.0124 56.4502 40.0034 56.3389C39.9944 56.2277 39.9636 56.1194 39.9128 56.0201L35.9094 48.2039H44.4139C45.4791 48.2039 46.3457 47.3374 46.3457 46.2721V44.4023H51.4417C51.9109 44.4023 52.2913 44.022 52.2913 43.5527C52.2913 43.0834 51.9109 42.7031 51.4417 42.7031ZM44.6464 46.2721C44.6464 46.3338 44.6219 46.3929 44.5783 46.4365C44.5347 46.4801 44.4755 46.5046 44.4139 46.5047H14.1932C14.1315 46.5046 14.0724 46.4801 14.0288 46.4365C13.9852 46.3929 13.9607 46.3338 13.9606 46.2721V44.4023H44.6464V46.2721ZM13.8069 6.24362H52.2037C52.3903 6.24383 52.5693 6.31807 52.7013 6.45006C52.8332 6.58204 52.9075 6.761 52.9077 6.94766V15.0259C52.9077 15.4952 53.2881 15.8755 53.7573 15.8755C54.2265 15.8755 54.6069 15.4952 54.6069 15.0259V6.94766C54.6069 5.62249 53.5288 4.5444 52.2037 4.5444H34.019V2.8744C34.019 1.69911 33.0628 0.742905 31.8873 0.742905H26.7197C25.5444 0.742905 24.5881 1.69911 24.5881 2.8744V4.5444H13.8069C13.3377 4.5444 12.9573 4.92468 12.9573 5.39401C12.9573 5.86333 13.3377 6.24362 13.8069 6.24362ZM26.2873 2.8744C26.2874 2.75977 26.333 2.64987 26.4141 2.56883C26.4951 2.48778 26.6051 2.44221 26.7197 2.44212H31.8873C32.002 2.44224 32.1119 2.48782 32.1929 2.56886C32.274 2.6499 32.3196 2.75978 32.3197 2.8744V4.5444H26.2874V2.8744H26.2873Z" fill="url(#paint1_linear_1120_9385)"/>
<path d="M15.8838 30.3113C15.6585 30.3113 15.4424 30.4009 15.283 30.5602C15.1237 30.7195 15.0342 30.9356 15.0342 31.161V38.6683C15.0342 38.8937 15.1237 39.1098 15.283 39.2691C15.4424 39.4284 15.6585 39.5179 15.8838 39.5179H19.3306C19.5559 39.5179 19.772 39.4284 19.9314 39.2691C20.0907 39.1098 20.1802 38.8937 20.1802 38.6683V31.161C20.1802 30.9356 20.0907 30.7195 19.9314 30.5602C19.772 30.4009 19.5559 30.3113 19.3306 30.3113H15.8838ZM18.481 37.8188H16.7334V32.0107H18.481V37.8188ZM23.6815 25.9695C23.4562 25.9695 23.2401 26.059 23.0807 26.2184C22.9214 26.3777 22.8319 26.5938 22.8319 26.8191V38.6684C22.8319 38.8938 22.9214 39.1099 23.0807 39.2692C23.2401 39.4285 23.4562 39.5181 23.6815 39.5181H27.1283C27.3536 39.5181 27.5697 39.4285 27.7291 39.2692C27.8884 39.1099 27.9779 38.8938 27.9779 38.6684V26.8191C27.9779 26.5938 27.8884 26.3777 27.7291 26.2184C27.5697 26.059 27.3536 25.9695 27.1283 25.9695H23.6815ZM26.2788 37.8188H24.5312V27.6687H26.2788V37.8188ZM31.4793 30.3113C31.254 30.3113 31.0379 30.4009 30.8786 30.5602C30.7192 30.7195 30.6297 30.9356 30.6297 31.161V38.6683C30.6297 38.8937 30.7192 39.1098 30.8786 39.2691C31.0379 39.4284 31.254 39.5179 31.4793 39.5179H34.9261C35.1515 39.5179 35.3676 39.4284 35.5269 39.2691C35.6862 39.1098 35.7757 38.8937 35.7757 38.6683V31.161C35.7757 30.9356 35.6862 30.7195 35.5269 30.5602C35.3676 30.4009 35.1515 30.3113 34.9261 30.3113H31.4793ZM34.0765 37.8188H32.3289V32.0107H34.0765V37.8188ZM39.2772 35.3247C39.0518 35.3247 38.8357 35.4142 38.6764 35.5736C38.5171 35.7329 38.4275 35.949 38.4275 36.1743V38.6684C38.4275 38.8938 38.5171 39.1099 38.6764 39.2692C38.8357 39.4285 39.0518 39.5181 39.2772 39.5181H42.724C43.1932 39.5181 43.5736 39.1378 43.5736 38.6684C43.5736 38.1991 43.1932 37.8188 42.724 37.8188H40.1268V36.1743C40.1268 35.949 40.0373 35.7329 39.8779 35.5736C39.7186 35.4142 39.5025 35.3247 39.2772 35.3247ZM61.5671 43.5022L56.6929 35.0598C57.9278 33.7435 58.827 32.1353 59.3073 30.3427C60.075 27.4777 59.681 24.4852 58.198 21.9164C55.1364 16.6134 48.3315 14.7903 43.0288 17.8518C37.726 20.9132 35.9027 27.7181 38.9643 33.0209C40.4474 35.5897 42.842 37.4271 45.707 38.1949C46.6501 38.4486 47.6224 38.5774 48.5991 38.578C49.4421 38.578 50.2803 38.4811 51.1 38.2892L55.9731 46.7318C56.5704 47.7669 57.6582 48.3461 58.7754 48.346C59.3228 48.346 59.8775 48.2067 60.3849 47.914C61.3813 47.3389 62.0004 46.2664 62.0004 45.1153C62.0004 44.5513 61.8506 43.9936 61.5671 43.5022ZM46.1468 36.5536C43.7202 35.9034 41.6919 34.347 40.4357 32.1713C37.8427 27.6799 39.387 21.9164 43.8783 19.3233C45.3558 18.4703 46.9704 18.0652 48.5652 18.0652C51.8181 18.0652 54.9863 19.7523 56.7263 22.766C57.9824 24.9417 58.3161 27.4763 57.6659 29.903C57.0156 32.3297 55.4593 34.3578 53.2836 35.6139C51.108 36.8701 48.5735 37.2036 46.1468 36.5536ZM59.5356 46.4423C58.8046 46.8643 57.8666 46.6131 57.4449 45.8824L52.7564 37.7597C53.2302 37.5665 53.6902 37.3413 54.1334 37.0856C54.5765 36.8291 55.0015 36.5428 55.4056 36.2285L60.0954 44.3515C60.2297 44.5838 60.3006 44.8472 60.3011 45.1154C60.3008 45.3842 60.2299 45.6482 60.0956 45.8811C59.9612 46.1139 59.7681 46.3074 59.5356 46.4423Z" fill="url(#paint2_linear_1120_9385)"/>
<path d="M56.2842 29.8622C56.8841 27.9301 56.7412 25.8615 55.882 24.0377C55.8352 23.9356 55.7686 23.8438 55.6861 23.7676C55.6036 23.6914 55.5068 23.6323 55.4013 23.5937C55.2958 23.5552 55.1837 23.5379 55.0715 23.543C54.9593 23.548 54.8492 23.5753 54.7476 23.6231C54.646 23.671 54.5549 23.7385 54.4795 23.8218C54.4042 23.9051 54.3461 24.0026 54.3087 24.1085C54.2712 24.2143 54.2551 24.3266 54.2613 24.4388C54.2676 24.5509 54.2959 24.6607 54.3449 24.7618C55.0226 26.2005 55.1351 27.8327 54.6615 29.3582C54.1853 30.892 53.1564 32.1792 51.7646 32.9829C50.2917 33.8334 48.5756 34.059 46.9329 33.6189C45.2901 33.1787 43.9169 32.1251 43.0666 30.6522C41.3111 27.6116 42.3567 23.7098 45.3972 21.9542C46.4816 21.3264 47.7273 21.0329 48.9779 21.1106C50.2285 21.1884 51.4282 21.6339 52.4265 22.3912C52.5154 22.4585 52.6168 22.5077 52.7247 22.5358C52.8327 22.564 52.9451 22.5706 53.0557 22.5553C53.1662 22.54 53.2726 22.5031 53.3689 22.4466C53.4651 22.3902 53.5493 22.3153 53.6166 22.2263C53.7525 22.0467 53.8115 21.8203 53.7806 21.5971C53.7497 21.3739 53.6313 21.1722 53.4516 21.0362C52.1872 20.0769 50.6674 19.5125 49.0832 19.414C47.4991 19.3155 45.9211 19.6873 44.5475 20.4826C42.6815 21.5599 41.3468 23.2995 40.7891 25.3807C40.2314 27.4619 40.5177 29.6357 41.595 31.5017C42.6723 33.3678 44.4118 34.7025 46.493 35.2603C47.1781 35.4445 47.8845 35.5381 48.5939 35.5386C49.9916 35.5386 51.3712 35.172 52.614 34.4544C54.3775 33.4364 55.6809 31.8056 56.2842 29.8622Z" fill="url(#paint3_linear_1120_9385)"/>
</g>
</g>
<defs>
<filter id="filter0_d_1120_9385" x="0" y="0" width="66" height="66" filterUnits="userSpaceOnUse" color-interpolation-filters="sRGB">
<feFlood flood-opacity="0" result="BackgroundImageFix"/>
<feColorMatrix in="SourceAlpha" type="matrix" values="0 0 0 0 0 0 0 0 0 0 0 0 0 0 0 0 0 0 127 0" result="hardAlpha"/>
<feOffset dy="4"/>
<feGaussianBlur stdDeviation="2"/>
<feComposite in2="hardAlpha" operator="out"/>
<feColorMatrix type="matrix" values="0 0 0 0 0 0 0 0 0 0 0 0 0 0 0 0 0 0 0.25 0"/>
<feBlend mode="normal" in2="BackgroundImageFix" result="effect1_dropShadow_1120_9385"/>
<feBlend mode="normal" in="SourceGraphic" in2="effect1_dropShadow_1120_9385" result="shape"/>
</filter>
<linearGradient id="paint0_linear_1120_9385" x1="14.7754" y1="17.6886" x2="45.9021" y2="17.6886" gradientUnits="userSpaceOnUse">
<stop stop-color="#673EB6"/>
<stop offset="1" stop-color="#291949"/>
</linearGradient>
<linearGradient id="paint1_linear_1120_9385" x1="4" y1="29" x2="58.2112" y2="29" gradientUnits="userSpaceOnUse">
<stop stop-color="#673EB6"/>
<stop offset="1" stop-color="#291949"/>
</linearGradient>
<linearGradient id="paint2_linear_1120_9385" x1="15.0342" y1="32.3561" x2="65.3453" y2="32.3561" gradientUnits="userSpaceOnUse">
<stop stop-color="#673EB6"/>
<stop offset="1" stop-color="#291949"/>
</linearGradient>
<linearGradient id="paint3_linear_1120_9385" x1="40.5107" y1="27.4685" x2="57.7987" y2="27.4685" gradientUnits="userSpaceOnUse">
<stop stop-color="#673EB6"/>
<stop offset="1" stop-color="#291949"/>
</linearGradient>
<clipPath id="clip0_1120_9385">
<rect width="58" height="58" fill="white" transform="translate(4)"/>
</clipPath>
</defs>
</svg>
