<svg width="184" height="184" viewBox="0 0 184 184" fill="none" xmlns="http://www.w3.org/2000/svg">
<g clip-path="url(#clip0_1120_9216)">
<path d="M19.364 74.3604C15.0693 75.8266 11.7739 80.0545 8.31586 82.8147C7.39159 83.4123 8.16293 85.0106 9.39158 84.4783C13.2082 82.2727 17.5252 79.2193 20.4398 76.024C20.9404 75.176 20.2233 74.0669 19.364 74.3604ZM44.7737 65.0085C40.5124 64.0939 36.087 66.1688 32.8792 68.5051C32.1397 68.9832 32.8569 70.0924 33.5963 69.6143C35.4697 68.648 37.4467 67.8973 39.4894 67.3767C41.3268 66.9751 43.0988 66.8778 44.9362 66.4762C45.7299 66.4873 45.6868 65.2045 44.7737 65.0085ZM73.5065 66.8768C71.6914 65.6912 69.2564 65.1686 67.0604 65.0157C64.9297 64.5584 62.5489 64.525 60.4725 64.5569C59.6788 64.5458 59.6024 65.6437 60.396 65.6549C62.592 65.8078 64.7226 66.2651 66.6684 66.8419C68.7991 67.2993 70.7991 68.3653 72.9297 68.8226C73.9621 69.2037 74.4736 67.5622 73.5065 66.8768ZM84.6141 75.9473C83.4619 75.3816 82.6458 76.9579 83.7982 77.5234C84.7656 78.2086 86.0373 78.9591 87.0046 79.6444C88.211 80.6993 88.8625 82.113 90.1342 82.8635C90.6776 83.2986 91.6019 82.7009 91.4282 82.0269C91.038 79.3957 87.038 77.2635 84.6141 75.9473ZM104.545 95.8271C103.35 93.9785 102.155 92.13 100.71 90.7053C99.927 89.9006 98.8179 90.6177 99.4155 91.542C100.306 93.3252 101.263 94.8041 102.338 96.4677C103.414 98.1314 104.12 100.034 105.75 101.339C106.413 101.959 107.707 101.122 107.414 100.264C106.828 98.5455 105.687 97.1862 104.545 95.8271ZM110.627 114.963C111.083 117.289 111.539 119.616 111.625 122.181C111.777 124.443 111.558 126.943 112.569 128.911C112.982 129.955 114.395 129.303 114.71 128.575C115.353 126.325 114.658 123.628 114.202 121.302C113.931 118.855 113.29 116.649 112.465 114.561C111.933 113.332 110.214 113.919 110.627 114.963ZM111.512 134.575C111.239 136.586 111.087 138.782 110.695 140.609C110.499 141.522 110.118 142.554 109.617 143.402C109.117 144.25 108.747 144.489 108.671 145.587C108.66 146.381 109.508 146.881 110.182 146.707C112.085 146.002 112.488 143.381 112.88 141.555C113.217 139.24 113.066 136.979 112.795 134.532C112.621 133.858 111.523 133.782 111.512 134.575ZM100.266 148.4C99.8202 149.737 99.0697 151.009 97.9606 151.726C97.0363 152.323 95.8076 152.856 95.5463 154.073C95.4157 154.682 95.7742 155.237 96.383 155.367C99.4266 156.02 101.451 151.042 101.603 148.846C101.615 148.052 100.582 147.671 100.266 148.4ZM85.9255 152.167C84.3274 152.939 82.4244 153.645 80.587 154.046C78.4455 154.383 76.8694 153.567 74.9887 152.685C73.9561 152.305 72.9665 153.207 73.4987 154.435C76.5411 159.546 83.4237 156.406 86.7622 153.461C87.1974 152.918 86.4801 151.809 85.9255 152.167ZM68.7944 145.943C65.5227 144.127 64.0996 141.115 61.6326 138.516C60.9699 137.896 59.8607 138.613 60.1538 139.472C61.6311 142.973 64.7069 145.703 68.2287 147.096C68.957 147.411 69.4577 146.563 68.7944 145.943ZM48.9756 113.67C47.6802 118.964 49.9291 124.064 52.8628 128.196C53.3409 128.935 54.6349 128.099 54.1568 127.359C51.8316 123.358 50.4307 118.759 50.8021 114.063C51.0635 112.845 49.2373 112.453 48.9756 113.67ZM51.0917 93.4283C48.8401 97.2434 48.284 102.059 48.2825 106.517C48.2061 107.615 49.9782 107.517 49.8698 106.539C50.2951 102.332 51.6337 98.3206 52.6678 94.2442C52.9291 93.0267 51.5918 92.5807 51.0917 93.4283ZM55.0654 75.655C52.4774 77.3284 50.9541 81.459 50.4856 84.3833C50.2243 85.6008 52.0506 85.9927 52.3119 84.7752C52.6385 83.2533 53.2696 81.7968 54.0201 80.5251C54.7707 79.2534 55.8256 78.047 56.4566 76.5904C56.7721 75.8621 55.6199 75.2964 55.0654 75.655ZM74.8161 51.8747C73.3372 52.8309 72.217 54.3416 70.8577 55.4827C69.2482 57.0476 67.5192 58.4277 66.3336 60.2429C65.6484 61.2102 66.8547 62.2651 67.6595 61.4827C69.0841 60.0372 70.8131 58.6571 72.3573 57.3966C73.7166 56.2555 75.5652 55.0603 76.2615 53.2993C76.9467 52.332 75.74 51.2773 74.8161 51.8747ZM90.0728 39.3885C87.3112 40.3877 84.7121 42.8547 82.2436 44.7129C81.3194 45.3105 82.156 46.6045 83.0803 46.0069C85.7878 44.5184 88.9192 43.2801 91.1486 41.0522C91.953 40.2699 91.1163 38.9759 90.0728 39.3885ZM107.862 29.197C106.329 29.6639 105.154 30.6855 103.86 31.5223C102.566 32.3588 101.087 33.3152 99.9128 34.3367C98.9886 34.9343 99.9448 36.4132 100.869 35.8155C102.163 34.9789 103.642 34.0225 105.055 33.3709C106.349 32.5342 107.763 31.8824 108.818 30.6758C109.557 30.1977 108.84 29.0886 107.862 29.197Z" fill="white" fill-opacity="0.2"/>
<path d="M123.563 19.8312C119.606 18.9819 115.769 18.3175 111.866 17.9573C109.062 17.6737 104.496 16.6939 102.212 18.4326C101.288 19.0302 101.266 20.6174 102.418 21.1831C104.722 22.3145 108.027 21.7503 110.408 21.7837C113.398 21.9478 116.626 22.4816 119.855 23.0153C117.114 26.8846 114.732 31.3085 112.415 35.428C111.664 36.6997 113.718 38.255 114.774 37.0485C118.439 32.5815 120.593 26.9943 124.802 22.9624C125.791 22.0606 124.9 20.2772 123.563 19.8312Z" fill="white" fill-opacity="0.2"/>
</g>
<defs>
<clipPath id="clip0_1120_9216">
<rect width="132.415" height="132.415" fill="white" transform="translate(0.494141 72.392) rotate(-32.8862)"/>
</clipPath>
</defs>
</svg>
