<svg width="187" height="187" viewBox="0 0 187 187" fill="none" xmlns="http://www.w3.org/2000/svg">
<g id="Frame" clip-path="url(#clip0_1120_9220)">
<g id="Group">
<path id="Vector" d="M87.7206 18.5659C85.0087 14.9272 79.9744 13.086 76.2872 10.6402C75.4351 9.94355 74.15 11.1676 75.0333 12.174C78.3024 15.131 82.5319 18.3045 86.4666 20.0997C87.4272 20.3164 88.2632 19.2938 87.7206 18.5659ZM104.409 39.8869C103.974 35.5504 100.643 31.9738 97.4359 29.6363C96.7542 29.079 95.9182 30.1015 96.5999 30.6589C98.0938 32.146 99.4142 33.7978 100.536 35.5826C101.481 37.2086 102.117 38.8656 103.062 40.4915C103.295 41.2503 104.503 40.8162 104.409 39.8869ZM111.436 67.8098C112.009 65.7187 111.76 63.2407 111.233 61.1035C111.015 58.9352 110.317 56.6587 109.65 54.6919C109.418 53.9331 108.349 54.1968 108.582 54.9557C109.109 57.0928 109.327 59.2611 109.374 61.2901C109.592 63.4583 109.19 65.6888 109.408 67.8571C109.361 68.9565 111.08 68.9404 111.436 67.8098ZM106.207 81.1627C106.392 79.8926 104.641 79.5987 104.456 80.8691C104.1 81.9999 103.776 83.4404 103.42 84.5712C102.785 86.0428 101.639 87.0962 101.315 88.5367C101.067 89.1873 101.919 89.884 102.508 89.5121C104.893 88.3343 105.696 83.8733 106.207 81.1627ZM93.3914 106.227C94.7847 104.523 96.178 102.819 97.0911 101.006C97.6174 100.015 96.5948 99.179 95.8982 100.031C94.4738 101.426 93.3591 102.789 92.1052 104.323C90.8512 105.857 89.2564 107.112 88.5137 109.064C88.127 109.884 89.32 110.86 90.0475 110.317C91.5033 109.233 92.4475 107.73 93.3914 106.227ZM77.0405 117.881C74.9655 119.028 72.8907 120.174 70.4749 121.043C68.3686 121.88 65.9216 122.439 64.3579 124.004C63.4908 124.716 64.5445 125.862 65.3346 125.939C67.6731 125.861 70.0273 124.373 72.102 123.226C74.3477 122.219 76.2517 120.932 77.9859 119.507C78.9923 118.624 77.9073 117.168 77.0405 117.881ZM58.6427 124.733C56.6451 125.09 54.5077 125.618 52.6492 125.804C51.7199 125.898 50.6202 125.852 49.6599 125.635C48.6995 125.419 48.3587 125.14 47.2901 125.404C46.5312 125.636 46.3148 126.597 46.6867 127.185C47.9416 128.78 50.5592 128.361 52.4177 128.174C54.7254 127.786 56.8312 126.949 59.0766 125.942C59.6656 125.57 59.4016 124.501 58.6427 124.733ZM42.0369 118.266C40.6274 118.251 39.1869 117.926 38.1644 117.09C37.3122 116.393 36.429 115.387 35.19 115.511C34.5705 115.573 34.1525 116.085 34.2147 116.704C34.5259 119.802 39.8847 120.202 42.0221 119.675C42.781 119.443 42.8273 118.343 42.0369 118.266ZM34.0559 105.769C32.8316 104.485 31.5767 102.889 30.6313 101.264C29.6546 99.3282 29.9482 97.5779 30.211 95.5176C30.257 94.4179 29.0951 93.7523 28.0887 94.6355C24.1564 99.0976 29.2541 104.687 33.0806 106.962C33.731 107.21 34.5672 106.187 34.0559 105.769ZM34.7303 87.5552C35.4568 83.8842 37.8876 81.6065 39.6057 78.4617C39.9923 77.641 38.9698 76.805 38.2423 77.3471C35.3624 79.8263 33.7066 83.5905 33.4602 87.3698C33.383 88.1597 34.3437 88.3764 34.7303 87.5552ZM59.3767 58.7996C53.9405 59.1889 49.7753 62.8924 46.7414 66.9512C46.1841 67.6329 47.377 68.6082 47.9344 67.9265C51.0307 64.487 54.9792 61.7441 59.5631 60.6584C60.8026 60.534 60.616 58.6755 59.3767 58.7996ZM79.2934 54.6105C74.9718 53.6364 70.2172 54.5829 65.9739 55.9475C64.9054 56.2112 65.541 57.8682 66.4392 57.4652C70.5742 56.5808 74.8025 56.6257 78.9997 56.3608C80.2387 56.2364 80.2534 54.8267 79.2934 54.6105ZM97.4292 52.9462C95.0433 50.9955 90.6445 50.8113 87.7174 51.2616C86.4784 51.386 86.665 53.2445 87.904 53.1201C89.4528 52.9647 91.0326 53.119 92.4731 53.4437C93.9137 53.7684 95.3853 54.4028 96.9652 54.5571C97.7551 54.6343 97.9405 53.3642 97.4292 52.9462ZM126.118 64.4588C124.755 63.3442 122.973 62.7408 121.471 61.7966C119.488 60.7441 117.644 59.5213 115.553 58.949C114.422 58.5932 113.788 60.0648 114.779 60.591C116.592 61.5042 118.435 62.727 120.108 63.8106C121.611 64.7548 123.315 66.1481 125.205 66.2713C126.336 66.6271 126.97 65.1552 126.118 64.4588ZM142.679 75.155C140.882 72.8324 137.737 71.1144 135.212 69.3342C134.359 68.6375 133.384 69.8305 134.236 70.5272C136.483 72.6482 138.621 75.2494 141.425 76.6888C142.416 77.2148 143.392 76.0218 142.679 75.155ZM157.832 88.9648C156.918 87.6486 155.585 86.8437 154.392 85.8682C153.199 84.8931 151.836 83.7782 150.503 82.9733C149.651 82.2767 148.537 83.6401 149.389 84.3367C150.582 85.312 151.945 86.4269 152.999 87.5724C154.192 88.5477 155.245 89.6935 156.717 90.3282C157.399 90.8855 158.235 89.8629 157.832 88.9648Z" fill="white" fill-opacity="0.2"/>
<path id="Vector_2" d="M171.559 101.04C171.155 97.0134 170.611 93.1571 169.758 89.332C169.169 86.5753 168.702 81.9288 166.347 80.2879C165.495 79.5913 163.977 80.0565 163.792 81.3266C163.421 83.8668 164.971 86.84 165.669 89.1165C166.429 92.0125 166.911 95.2494 167.392 98.4862C162.869 97.063 157.928 96.1511 153.296 95.208C151.856 94.8833 151.005 97.3153 152.477 97.95C157.852 100.07 163.831 100.408 168.958 103.179C170.12 103.844 171.545 102.45 171.559 101.04Z" fill="white" fill-opacity="0.2"/>
</g>
</g>
<defs>
<clipPath id="clip0_1120_9220">
<rect width="132.415" height="132.415" fill="white" transform="translate(83.8115) rotate(39.2678)"/>
</clipPath>
</defs>
</svg>
