<svg width="195" height="40" viewBox="0 0 195 40" fill="none" xmlns="http://www.w3.org/2000/svg">
<path d="M35.1 0H0V40H35.1V0Z" fill="white"/>
<path d="M28.1648 13.758V6.66699H21.0877V13.4748H13.4452V26.9495H6.22754V33.474H28.0227V26.9495H21.0877V13.758H28.1648Z" fill="#673EB6"/>
<path d="M45.9316 32.9694V28.8999H51.0796V18.5427L46.9093 18.7966V14.7271L52.7076 14.3633C53.6251 14.3158 54.3258 14.5336 54.8097 15.0165C55.2937 15.4995 55.5357 16.1904 55.5357 17.0892V28.8999H60.6852V32.9694H45.9316Z" fill="white"/>
<path d="M73.8887 18.4325C72.1001 18.4325 70.6981 19.0321 69.6828 20.2312C68.6675 21.4304 68.1578 23.2538 68.1537 25.7016V32.9691H63.4814V14.7268H68.1537V17.3056L67.3197 20.1043H68.5167C68.9028 18.3851 69.6823 16.9981 70.8551 15.9435C72.028 14.8888 73.5571 14.362 75.4425 14.363C77.6893 14.363 79.4475 15.0715 80.7171 16.4883C81.9868 17.9052 82.6216 19.9464 82.6216 22.6119V32.9691H77.9864V23.3023C77.9864 21.5583 77.6661 20.3107 77.0256 19.5594C76.3852 18.8082 75.3395 18.4325 73.8887 18.4325Z" fill="white"/>
<path d="M102.245 28.0638C102.245 31.5725 99.5974 33.3268 94.3027 33.3268C91.2136 33.3268 88.9235 32.7148 87.4325 31.4909C85.9415 30.267 85.198 28.5411 85.2022 26.3131H89.8791C89.8791 28.5896 91.3902 29.7279 94.4123 29.7279C96.516 29.7279 97.5674 29.1469 97.5663 27.9849C97.5751 27.7032 97.5051 27.4246 97.3642 27.1806C97.2234 26.9367 97.0174 26.737 96.7693 26.6041C96.237 26.2884 95.2819 25.9127 93.9042 25.4772C93.5407 25.3792 93.2627 25.2941 93.0701 25.2218C90.6771 24.4231 89.1058 23.7936 88.3561 23.3334C86.8332 22.3644 86.0609 21.044 86.0393 19.3722C86.0393 17.7964 86.6916 16.5669 87.9963 15.6835C89.3009 14.8002 91.126 14.358 93.4717 14.3569C96.2519 14.3569 98.3067 14.9684 99.636 16.1912C100.965 17.4141 101.631 18.9465 101.632 20.7886H96.95C96.95 18.898 95.7777 17.9533 93.4331 17.9543C91.6198 17.9543 90.7131 18.4631 90.7131 19.4806C90.7131 20.0378 91.0396 20.4862 91.6924 20.8257C92.3452 21.1652 93.5175 21.6131 95.2093 22.1693C97.6271 22.9701 99.1866 23.5759 99.8878 23.9866C101.458 24.9597 102.244 26.3188 102.245 28.0638Z" fill="white"/>
<path d="M112.328 29.262L118.893 28.8998V32.9693L110.475 33.333C109.556 33.3568 108.855 33.1266 108.371 32.6427C107.887 32.1587 107.646 31.4435 107.647 30.4972V18.7964H103.442V14.7269H107.648V10.8014L112.325 9.3479V14.7269H118.164V18.7964H112.328V29.262Z" fill="white"/>
<path d="M121.572 27.9541C121.572 26.3804 122.098 25.1327 123.149 24.2112C124.201 23.2897 125.935 22.6839 128.353 22.3939L134.662 21.6308C134.59 19.3543 133.188 18.2156 130.457 18.2145C129.175 18.2145 128.153 18.4993 127.392 19.069C126.631 19.6386 126.251 20.4926 126.251 21.6308H121.826C121.826 19.4751 122.624 17.7249 124.22 16.3802C125.816 15.0356 127.895 14.3648 130.457 14.3679C133.091 14.3679 135.23 15.0903 136.874 16.535C138.519 17.9798 139.342 20.0437 139.345 22.7267V28.8999H141.984V32.9694H138.286C137.488 32.9694 136.877 32.7511 136.454 32.3146C136.031 31.8781 135.819 31.2723 135.819 30.4973V29.8782L136.545 27.807H135.31C134.44 31.489 131.999 33.3306 127.985 33.3316C126.68 33.3316 125.574 33.1494 124.668 32.7852C123.761 32.4209 123.103 31.9364 122.692 31.3317C122.318 30.8028 122.024 30.2211 121.821 29.6057C121.655 29.071 121.571 28.5141 121.572 27.9541ZM126.251 27.1554C126.251 27.8581 126.486 28.3849 126.957 28.7358C127.427 29.0867 128.05 29.2621 128.824 29.2621C130.59 29.2621 132.004 28.8199 133.067 27.9355C134.13 27.0511 134.661 25.8943 134.662 24.4651L129.187 25.1554C128.147 25.2782 127.398 25.4784 126.94 25.756C126.481 26.0336 126.252 26.5001 126.251 27.1554Z" fill="white"/>
<path d="M158.377 32.9693L153.228 25.3736L149.312 27.3364V32.9693H144.634V6.25977H149.312V22.5037L158.014 18.1417L157.832 14.7269H162.475L162.62 18.4698C162.644 19.9476 161.991 21.0136 160.662 21.6678L157.18 23.4123L163.707 32.9693H158.377Z" fill="white"/>
<path d="M165.629 32.9694V28.8999H170.778V18.5427L166.608 18.7966V14.7271L172.41 14.3633C173.328 14.3158 174.029 14.5336 174.513 15.0165C174.997 15.4995 175.239 16.1904 175.238 17.0892V28.8999H180.387V32.9694H165.629Z" fill="white"/>
<path d="M188.437 29.262L195 28.8998V32.9693L186.588 33.333C185.668 33.3568 184.966 33.1266 184.485 32.6427C184.003 32.1587 183.761 31.4435 183.759 30.4972V18.7964H179.553V14.7269H183.759V10.8014L188.437 9.3479V14.7269H194.275V18.7964H188.437V29.262Z" fill="white"/>
<path d="M169.414 7.51668V12.6233H174.51V7.51668H169.414Z" fill="white"/>
<path d="M50.5273 7.51668V12.6233H55.6228V7.51668H50.5273Z" fill="white"/>
</svg>
